<svg width="40" height="40" viewBox="0 0 40 40" fill="none" xmlns="http://www.w3.org/2000/svg">
    <rect width="40" height="40" rx="20" fill="#0BAEB9"/>
    <path fill-rule="evenodd" clip-rule="evenodd" d="M19.2839 14.287C16.5225 14.287 14.2839 16.5255 14.2839 19.287C14.2839 22.0484 16.5225 24.287 19.2839 24.287C22.0453 24.287 24.2839 22.0484 24.2839 19.287C24.2839 16.5255 22.0453 14.287 19.2839 14.287ZM12.8553 19.287C12.8553 15.7366 15.7335 12.8584 19.2839 12.8584C22.8343 12.8584 25.7125 15.7366 25.7125 19.287C25.7125 22.8374 22.8343 25.7155 19.2839 25.7155C15.7335 25.7155 12.8553 22.8374 12.8553 19.287Z" fill="white"/>
    <path fill-rule="evenodd" clip-rule="evenodd" d="M22.8155 22.8166C23.0945 22.5377 23.5467 22.5377 23.8257 22.8166L26.9328 25.9238C27.2118 26.2027 27.2118 26.655 26.9328 26.9339C26.6539 27.2129 26.2016 27.2129 25.9227 26.9339L22.8155 23.8268C22.5366 23.5478 22.5366 23.0956 22.8155 22.8166Z" fill="white"/>
</svg>
