<svg width="100" height="100" viewBox="0 0 100 100" fill="none" xmlns="http://www.w3.org/2000/svg">
    <circle cx="50" cy="50" r="50" fill="#85D7DC"/>
    <circle cx="50" cy="50" r="39" fill="#0BAEB9"/>
    <path d="M46.6667 47.3333C49.244 47.3333 51.3333 45.244 51.3333 42.6667C51.3333 40.0893 49.244 38 46.6667 38C44.0893 38 42 40.0893 42 42.6667C42 45.244 44.0893 47.3333 46.6667 47.3333Z" stroke="white" stroke-width="2.6" stroke-linecap="round" stroke-linejoin="round"/>
    <path d="M62 44L56.6667 49.3333" stroke="white" stroke-width="2.6" stroke-linecap="round" stroke-linejoin="round"/>
    <path d="M56.6666 43.9999L62 49.3333" stroke="white" stroke-width="2.6" stroke-linecap="round" stroke-linejoin="round"/>
    <path d="M35.3666 62.0001C35.3666 62.7181 35.9487 63.3001 36.6666 63.3001H56.6666C57.3846 63.3001 57.9666 62.7181 57.9666 62.0001L57.9666 61.8856C57.9667 60.7563 57.9668 60.0583 57.8871 59.4529C57.3376 55.2796 54.0537 51.9957 49.8805 51.4463C49.2751 51.3666 48.5771 51.3667 47.4477 51.3667C47.4101 51.3667 47.3719 51.3667 47.3333 51.3667H46C45.9613 51.3667 45.9232 51.3667 45.8855 51.3667C44.7562 51.3667 44.0582 51.3666 43.4527 51.4463C39.2795 51.9957 35.9956 55.2796 35.4462 59.4529C35.3665 60.0583 35.3665 60.7563 35.3666 61.8857C35.3666 61.9233 35.3666 61.9615 35.3666 62.0001Z" stroke="white" stroke-width="2.6" stroke-linecap="round" stroke-linejoin="round"/>
</svg>
