<svg width="27" height="28" viewBox="0 0 27 28" fill="none" xmlns="http://www.w3.org/2000/svg">
    <path fill-rule="evenodd" clip-rule="evenodd" d="M13.4391 0.592041L25.3064 5.69473C26.074 6.02476 26.571 6.77757 26.571 7.61006V23.3588C26.571 25.4206 24.8924 27.0921 22.8217 27.0921H21.2056C19.9387 27.0921 18.6893 26.7984 17.5562 26.2343L13.4589 24.1944L9.68184 26.1644C8.51353 26.7738 7.2143 27.0921 5.89541 27.0921H4.62651C2.55582 27.0921 0.877197 25.4206 0.877197 23.3588V7.59661C0.877197 6.77714 1.359 6.03355 2.10883 5.69579L13.4391 0.592041ZM15.2709 22.8867L18.4439 24.4665C19.3014 24.8934 20.2469 25.1156 21.2056 25.1156H22.8217C23.7962 25.1156 24.5861 24.3291 24.5861 23.3588V7.61006C24.5861 7.56625 24.5599 7.52663 24.5195 7.50926L13.4578 2.75294L2.92695 7.49657C2.88749 7.51435 2.86213 7.55348 2.86213 7.59661V23.3588C2.86213 24.3291 3.65207 25.1156 4.62651 25.1156H5.89541C6.89349 25.1156 7.87669 24.8747 8.76082 24.4136L11.6505 22.9064L10.4677 21.953C8.06572 20.0169 6.50497 17.2339 6.1095 14.1821L5.62869 10.4717C5.53598 9.75627 5.9553 9.0729 6.6369 8.82857L13.4359 6.39135L20.7469 8.81795C21.4821 9.06197 21.9216 9.81086 21.7744 10.5684L20.976 14.6758C20.4383 17.4423 18.9375 19.9311 16.738 21.7041L15.2709 22.8867ZM13.4484 21.8128L15.4891 20.1679C17.3254 18.6877 18.5783 16.6098 19.0273 14.3002L19.7521 10.5712L13.4609 8.48304L7.64264 10.5687L8.07811 13.9291C8.40827 16.477 9.71128 18.8004 11.7166 20.4168L13.4484 21.8128Z" fill="white"/>
    <path fill-rule="evenodd" clip-rule="evenodd" d="M17.2158 12.5721C17.5872 12.9419 17.5872 13.5414 17.2158 13.9112L13.3485 17.762L10.9666 15.6538C10.5741 15.3063 10.5388 14.7078 10.8877 14.317C11.2366 13.9261 11.8377 13.8909 12.2302 14.2383L13.2717 15.1602L15.8709 12.5721C16.2423 12.2023 16.8444 12.2023 17.2158 12.5721Z" fill="white"/>
</svg>
